<svg xmlns="http://www.w3.org/2000/svg" xmlns:xlink="http://www.w3.org/1999/xlink" width="1080" zoomAndPan="magnify" viewBox="0 0 810 809.999993" height="1080" preserveAspectRatio="xMidYMid meet" version="1.0"><path fill="#000000" d="M 121.335938 445.621094 C 108.050781 439.339844 93.886719 437.085938 79.96875 440.464844 C 92.234375 409.152344 108.890625 378.355469 131.570312 357.367188 C 151.882812 338.566406 175.507812 329.136719 203.25 331.371094 C 225.210938 333.140625 246.8125 341.972656 265.554688 353.253906 C 274.40625 358.582031 284.601562 365.535156 292.269531 372.570312 L 293.289062 373.507812 L 294.457031 374.253906 C 330.179688 397.027344 370.867188 392.398438 409.082031 375.648438 C 405.050781 379.914062 400.929688 384.074219 396.703125 388.09375 C 369.113281 414.332031 335.597656 436.84375 298.527344 414.929688 C 285.6875 405.753906 257.984375 385.75 242.144531 385.523438 C 229.558594 385.339844 220.972656 395.136719 222.132812 407.503906 C 222.714844 413.691406 225.589844 420.015625 228.496094 425.449219 C 234.652344 436.964844 242.902344 448.375 250.765625 458.8125 C 255.203125 464.703125 259.769531 470.589844 264.46875 476.285156 C 288.941406 507.324219 321.300781 522.09375 359.847656 509.875 C 393.992188 499.050781 425.496094 469.4375 449.160156 443.457031 C 477.015625 412.882812 501.714844 378.917969 525.714844 345.277344 C 536.140625 330.664062 546.464844 315.957031 557.128906 301.519531 C 564.667969 291.308594 572.746094 280.457031 581.496094 271.261719 C 612.128906 239.054688 650.585938 211.777344 694.816406 203.507812 C 671.707031 224.503906 651.476562 252.636719 634.074219 278.433594 C 589.269531 344.839844 551.070312 415.382812 504.1875 480.566406 C 469.960938 528.15625 417.027344 593.441406 356.785156 606.75 C 328.113281 613.082031 301.339844 607.03125 275.914062 593.011719 C 237.363281 571.753906 203.925781 533.433594 178.253906 498.378906 C 163.597656 478.363281 144.167969 456.414062 121.335938 445.621094 Z M 48.101562 487.277344 C 48.101562 487.277344 88.191406 402.148438 165.503906 507.714844 C 455.3125 903.441406 614.28125 169.671875 761.859375 191.316406 C 761.859375 191.316406 670.15625 155.121094 570.046875 260.367188 C 510.855469 322.59375 373.484375 589.339844 276.769531 466.367188 C 276.769531 466.367188 181.171875 350.527344 289.867188 428.167969 C 374.941406 479.347656 447.996094 347.160156 503.246094 287.546875 C 482.484375 308.976562 378.867188 409.324219 302.953125 360.925781 C 302.953125 360.925781 126.472656 198.96875 48.101562 487.277344 Z M 48.101562 487.277344 " fill-opacity="1" fill-rule="evenodd"/></svg>