<?xml version="1.0" encoding="UTF-8"?>
<!DOCTYPE svg PUBLIC "-//W3C//DTD SVG 1.1//EN" "http://www.w3.org/Graphics/SVG/1.1/DTD/svg11.dtd">
<!-- Creator: CorelDRAW -->
<svg xmlns="http://www.w3.org/2000/svg" xml:space="preserve" width="400px" height="400px" version="1.1" style="shape-rendering:geometricPrecision; text-rendering:geometricPrecision; image-rendering:optimizeQuality; fill-rule:evenodd; clip-rule:evenodd"
viewBox="0 0 400 400"
 xmlns:xlink="http://www.w3.org/1999/xlink"
 xmlns:xodm="http://www.corel.com/coreldraw/odm/2003">
 <defs>
  <style type="text/css">
   <![CDATA[
    .fil0 {fill:#332C2B}
   ]]>
  </style>
 </defs>
 <g id="Layer_x0020_1">
  <metadata id="CorelCorpID_0Corel-Layer"/>
  <path class="fil0" d="M47.32 221.77c-7.15,-3.38 -14.77,-4.6 -22.27,-2.78 6.6,-16.85 15.57,-33.43 27.78,-44.73 10.93,-10.12 23.65,-15.19 38.58,-13.99 11.82,0.95 23.45,5.7 33.54,11.78 4.76,2.86 10.25,6.61 14.38,10.39l0.55 0.51 0.63 0.4c19.23,12.26 41.13,9.77 61.7,0.75 -2.17,2.3 -4.39,4.54 -6.67,6.7 -14.85,14.12 -32.89,26.24 -52.84,14.45 -6.91,-4.95 -21.83,-15.71 -30.35,-15.84 -6.78,-0.09 -11.4,5.18 -10.77,11.84 0.31,3.33 1.86,6.73 3.42,9.66 3.32,6.2 7.76,12.34 11.99,17.96 2.39,3.17 4.85,6.34 7.37,9.4 13.18,16.71 30.6,24.66 51.35,18.08 18.37,-5.83 35.33,-21.76 48.07,-35.75 14.99,-16.46 28.29,-34.74 41.21,-52.85 5.61,-7.86 11.17,-15.78 16.91,-23.55 4.06,-5.5 8.4,-11.34 13.11,-16.29 16.49,-17.33 37.19,-32.02 61,-36.47 -12.44,11.3 -23.33,26.44 -32.7,40.33 -24.11,35.75 -44.67,73.72 -69.91,108.81 -18.42,25.61 -46.92,60.75 -79.34,67.92 -15.44,3.41 -29.85,0.15 -43.53,-7.4 -20.75,-11.44 -38.75,-32.07 -52.57,-50.94 -7.89,-10.77 -18.35,-22.58 -30.64,-28.39zm-39.42 22.42c0,0 21.58,-45.83 63.2,11 155.99,213.01 241.56,-181.96 321,-170.31 0,0 -49.36,-19.48 -103.25,37.17 -31.86,33.49 -105.8,177.08 -157.86,110.88 0,0 -51.46,-62.35 7.05,-20.56 45.79,27.55 85.11,-43.6 114.85,-75.69 -11.17,11.53 -66.95,65.55 -107.81,39.5 0,0 -95,-87.18 -137.18,68.01z"/>
 </g>
</svg>
